<svg xmlns="http://www.w3.org/2000/svg" width="1008.266" height="382.751" viewBox="0 0 1008.266 382.751">
  <g id="Group_28144" data-name="Group 28144" transform="translate(17429 -184.551)">
    <g id="Group_15843" data-name="Group 15843" transform="translate(-17429 470.353)">
      <path id="Path_14508" data-name="Path 14508" d="M304.506,511.829c-.9-1.339-34.2-88.308-34.2-88.308H247.361s-31.01,83.513-32.475,87.444-8.626,4.8-8.626,4.8v4.494h30.233l-.086-4.494s-5.435-1.555-6.6-1.9-1.163-1.21-.863-2.075,6.254-17.238,6.254-17.238h38.989s5.348,14.4,6.059,16.375.583,2.689-.419,3.046S273.8,516.3,273.8,516.3v3.954h38.385v-4.536C308.086,513.9,305.412,513.169,304.506,511.829Zm-66.461-25.836,16.476-45.1L271,485.993Z" transform="translate(-206.26 -423.306)" fill="#f58420"/>
      <path id="Path_14509" data-name="Path 14509" d="M812.981,511.829c-.906-1.339-34.2-88.308-34.2-88.308H755.836s-31.01,83.513-32.476,87.444-8.626,4.8-8.626,4.8v4.494h30.234l-.087-4.494s-5.433-1.555-6.6-1.9-1.165-1.21-.863-2.075,6.254-17.238,6.254-17.238h38.988s5.348,14.4,6.06,16.375.582,2.689-.421,3.046-6.027,2.332-6.027,2.332v3.954h38.385v-4.536C816.56,513.9,813.886,513.169,812.981,511.829Zm-66.461-25.836L763,440.89l16.475,45.1Z" transform="translate(-43.108 -423.306)" fill="#f58420"/>
      <path id="Path_14510" data-name="Path 14510" d="M648.982,511.829c-.906-1.339-34.2-88.308-34.2-88.308H591.837s-31.01,83.513-32.475,87.444-8.626,4.8-8.626,4.8v4.494h30.233l-.087-4.494s-5.434-1.555-6.6-1.9-1.165-1.21-.863-2.075,6.254-17.238,6.254-17.238h38.988s5.349,14.4,6.06,16.375.582,2.689-.421,3.046-6.027,2.332-6.027,2.332v3.954h38.385v-4.536C652.562,513.9,649.888,513.169,648.982,511.829Zm-66.461-25.836L599,440.89l16.476,45.1Z" transform="translate(-95.729 -423.306)" fill="#f58420"/>
      <path id="Path_14511" data-name="Path 14511" d="M301.738,423.358v4.234l8.281,4.061v79.969l-9.532,4.536v4.148h79.141V498.272H369.621L362.2,511.06H327.96a25.385,25.385,0,0,0,4.226-2.937c1.294-1.3.863-3.025.863-6.567s.173-70.248.173-70.248l7.332-3.543v-4.407Z" transform="translate(-176.191 -423.358)" fill="#f58420"/>
      <path id="Path_14512" data-name="Path 14512" d="M647,423.358v4.234l8.28,4.061v79.969l-9.531,4.536v4.148h79.14V498.272H714.883l-7.419,12.789H673.22a25.378,25.378,0,0,0,4.228-2.937c1.293-1.3.861-3.025.861-6.567s.173-70.248.173-70.248l7.332-3.543v-4.407Z" transform="translate(-65.265 -423.358)" fill="#f58420"/>
      <path id="Path_14513" data-name="Path 14513" d="M464.488,443.318s-.906-19.96-36.228-19.96H378.145v4.148l8.13,4.017v79.711l-9.509,4.493v4.58h40.972v-4.494l-9.143-4.666V484.88s11.774.042,14.1.042,41.663-.906,41.792-19.311S464.488,443.318,464.488,443.318Zm-23.117,19.927a13.329,13.329,0,0,1-13.316,13.339H408.594V431.826h19.461a13.329,13.329,0,0,1,13.316,13.34Z" transform="translate(-151.556 -423.358)" fill="#f58420"/>
      <path id="Path_14514" data-name="Path 14514" d="M550.741,512.011V431.134l7.763-3.888v-3.888H520.464v4.148l7.892,4.32V466h-33.77V431.134l7.763-3.888v-3.888H464.311v4.148l7.892,4.32v80.185l-8.928,3.759v4.536h40.756v-4.925l-9.445-3.37V474.424h33.77v37.587l-8.928,3.759v4.536h40.756v-4.925Z" transform="translate(-123.797 -423.358)" fill="#f58420"/>
      <path id="Path_14515" data-name="Path 14515" d="M809.452,520.1V515.78l8.281-3.629V431.792l-8.281-3.8v-3.975h29.155s6.9-.346,9.057,2.591,24.368,51.414,27.732,60.875,4.141,10.628,4.4,11.146V432.266l-8.54-3.888L871.126,424h31.312v4.376l-7.634,3.888.042,87.835H872.592s-4.831-.864-8.281-9.16-29.672-68.089-32.432-71.372c0,0-.863-1.555,0,3.111s2.07,7.95,2.07,10.628-.087,58.412-.087,58.412l8.928,4.148.129,4.234Z" transform="translate(-12.575 -423.152)" fill="#f58420"/>
      <path id="Path_14516" data-name="Path 14516" d="M991.187,447.63s.346-22.64-36.572-23.158-52.1-.518-52.1-.518V428.1l8.108,4.494V512.09l-8.971,3.8v4.148s41.059.172,48.649,0,40.369-1.384,40.886-24.54S991.187,447.63,991.187,447.63Zm-22.943,49.6s-.442,13.651-17.042,13.825-22.292,0-22.292,0v-.67s5.11-.324,5.175-3.37,0-74.418,0-74.418H952.2s15.872.518,16.044,16.59S968.243,497.228,968.243,497.228Z" transform="translate(16.847 -423.168)" fill="#f58420"/>
    </g>
    <g id="Group_15842" data-name="Group 15842" transform="translate(-17056.729 184.551)">
      <path id="Path_14505" data-name="Path 14505" d="M519.38,278.705H607.1s68.747,126.971,73.146,133.612,10.437,13.715,20.357,13.715h73.06S669.208,246.1,665.586,239.632s-16.69-24.843-26.4-31.441c-6.081-3.882-9.122-2.847-12.55-2.847s-48.951-.125-48.951-.125a35.416,35.416,0,0,0-25.014,16.643C543.273,237.13,519.38,278.705,519.38,278.705Z" transform="translate(-480.768 -205.219)" fill="#328ccc"/>
      <g id="Group_15841" data-name="Group 15841" transform="translate(0 76.454)">
        <path id="Path_14506" data-name="Path 14506" d="M568.086,334.538l-41.822,73-31.041-52.808a37.078,37.078,0,0,1-.207-37.223l31.125-54.329Z" transform="translate(-490.109 -263.178)" fill="#faa31d"/>
        <path id="Path_14507" data-name="Path 14507" d="M559.669,317.44l-42.077,72.854,61.254.284a37.079,37.079,0,0,0,32.281-18.535l31.314-54.219Z" transform="translate(-481.338 -245.863)" fill="#f58420"/>
      </g>
    </g>
  </g>
</svg>
